<svg width="35" height="35" viewBox="0 0 35 35" fill="none" xmlns="http://www.w3.org/2000/svg">
<g id="Icon/Outline/printer">
<path id="Icon" d="M21.7824 23.4491H24.7454C26.3818 23.4491 27.7083 22.1226 27.7083 20.4862V14.5602C27.7083 12.9238 26.3818 11.5973 24.7454 11.5973H4.00463C2.36824 11.5973 1.04167 12.9238 1.04167 14.5602V20.4862C1.04167 22.1226 2.36824 23.4491 4.00463 23.4491H6.9676M9.93056 29.375H18.8194C20.4558 29.375 21.7824 28.0485 21.7824 26.4121V20.4862C21.7824 18.8498 20.4558 17.5232 18.8194 17.5232H9.93056C8.29416 17.5232 6.9676 18.8498 6.9676 20.4862V26.4121C6.9676 28.0485 8.29416 29.375 9.93056 29.375ZM21.7824 11.5973V5.67134C21.7824 4.03494 20.4558 2.70837 18.8194 2.70837H9.93056C8.29416 2.70837 6.9676 4.03494 6.9676 5.67134V11.5973H21.7824Z" stroke="white" stroke-width="1.66667" stroke-linecap="round" stroke-linejoin="round"/>
</g>
</svg>
