<svg width="175" height="57" viewBox="0 0 175 57" fill="none" xmlns="http://www.w3.org/2000/svg">
<g clip-path="url(#clip0_1_1970)">
<path d="M15.1462 6.94464L0.000183105 56.2001H159.96L174.839 6.94464H15.1462Z" fill="white"/>
<path d="M15.1462 6.94464L0.000183105 56.2001H134.295L135.216 53.7365H140.969L145.202 39.7945H116.99L118.089 35.6185L151.765 6.94464H123.498L122.672 9.1652H119.975L110.449 39.7945H104.857L95.5697 10.6621L87.1812 37.5077H90.1771L89.5779 39.7945H80.9896L81.8107 37.469H84.6568L93.2729 9.20386H90.3768L90.7763 6.94464H88.1299L87.453 9.20386H84.6568L75.8966 37.48H78.9924L78.1935 39.8277H62.5149L63.0142 37.5077H66.1099L74.7648 9.20386H68.4734L48.7337 39.7945H42.4422L41.5934 18.1192L27.1631 39.7945H21.5707L20.3724 9.20386H17.5762L17.7426 6.97778L15.1462 6.94464Z" fill="#7E0C6E"/>
<path d="M34.5253 6.94464L33.5544 9.20386H30.8581L31.5571 29.2054L41.4935 13.7941L41.144 9.1652L38.3478 9.17072L38.714 6.97778L34.5253 6.94464Z" fill="#7E0C6E"/>
<path d="M55.4246 6.98331L54.4259 9.20386H51.6298L52.3288 29.7523L65.6107 9.20386H62.9144V6.94464L55.4246 6.98331Z" fill="#7E0C6E"/>
<path d="M104.519 6.94464L111.298 28.41L117.29 9.1652H114.444L114.81 6.97778L104.519 6.94464Z" fill="#7E0C6E"/>
<path d="M164.415 0.205719L156.786 6.93367L152.32 6.94472L160.11 0.200195L164.415 0.205719Z" fill="#7E0C6E"/>
<path d="M156.292 6.94464L123.731 34.7237H146.7L151.094 20.8038L163.677 13.8438L157.485 34.7237H166.673L175 6.97778L156.292 6.94464Z" fill="#7E0C6E"/>
<path d="M155.788 39.7946H165.125L160.132 56.1615H156.686L157.435 53.7145H151.643L155.788 39.7946Z" fill="#7E0C6E"/>
</g>
<defs>
<clipPath id="clip0_1_1970">
<rect width="175" height="56" fill="white" transform="translate(0 0.200195)"/>
</clipPath>
</defs>
</svg>
